<svg width="150" height="40" xmlns="http://www.w3.org/2000/svg" fill="none">
 <defs>
  <clipPath id="clip0">
   <rect width="96" height="32" fill="white" id="svg_1"/>
  </clipPath>
 </defs>
 <g>
  <title>Layer 1</title>
  <g id="svg_2" stroke="null">
   <path id="svg_4" d="m0,20c0,-8.7514 7.09694,-15.84835 15.84835,-15.84835s15.84835,7.09694 15.84835,15.84835s-7.09694,15.84835 -15.84835,15.84835s-15.84835,-7.09694 -15.84835,-15.84835z" fill="#D0E4F2" stroke="null"/>
   <path id="svg_5" d="m11.9709,20.91986c0,0 0.10221,-0.5813 0.31301,-1.2648c-0.05749,-0.26829 -0.10859,-0.54297 -0.1597,-0.83043c0,0 -1.00929,-4.83563 -2.72124,-4.83563c-1.70557,0 -2.56154,4.83563 -2.56154,4.83563c-1.1626,6.52842 -3.49417,6.93725 -3.49417,6.93725l6.15792,0c0.00639,0 1.64807,-0.24274 2.46572,-4.84202z" fill="#282D4D" stroke="null"/>
   <path id="svg_6" d="m15.95055,22.12078c-0.08943,-0.36411 -0.17886,-0.76016 -0.25552,-1.20092c0,0 -0.70906,-3.36003 -1.91637,-3.36003c-0.70267,0 -1.20092,1.14343 -1.49477,2.09523c0.61963,2.93204 1.4756,4.46513 2.16549,5.25723c0.46632,-0.53019 1.00929,-1.39256 1.50115,-2.79151l0.00002,0z" fill="#5B84CB" stroke="null"/>
   <path id="svg_7" d="m14.45579,24.91229c-0.68989,-0.7921 -1.55226,-2.32519 -2.16549,-5.25723c-0.2108,0.6835 -0.31301,1.2648 -0.31301,1.2648c-0.81765,4.59928 -2.46572,4.84202 -2.46572,4.84202l3.78163,0c-0.00639,0 0.50464,-0.08943 1.1626,-0.84959l-0.00001,0z" opacity="0.9" fill="#16193B" stroke="null"/>
   <path id="svg_8" d="m14.45579,24.91229c-0.68989,-0.7921 -1.55226,-2.32519 -2.16549,-5.25723c-0.2108,0.6835 -0.31301,1.2648 -0.31301,1.2648c-0.81765,4.59928 -2.46572,4.84202 -2.46572,4.84202l3.78163,0c-0.00639,0 0.50464,-0.08943 1.1626,-0.84959l-0.00001,0z" fill="#4A72BB" stroke="null"/>
   <path id="svg_9" d="m21.91045,20.91986c0,0 0.10221,-0.5813 0.31301,-1.2648c-0.05749,-0.26829 -0.10859,-0.54297 -0.1597,-0.83043c0,0 -1.00929,-4.83563 -2.72124,-4.83563c-1.70557,0 -2.56154,4.83563 -2.56154,4.83563c-0.23635,1.34146 -0.53019,2.42101 -0.83681,3.29615c0.86236,3.44307 2.21021,3.6411 2.21021,3.6411l1.29674,0c0,0 1.64169,-0.24274 2.45934,-4.84202l-0.00001,0z" fill="#445696" stroke="null"/>
   <path id="svg_10" d="m15.95055,22.12078c-0.49187,1.39895 -1.02845,2.26131 -1.49477,2.79151c0.65795,0.75377 1.1626,0.8432 1.1626,0.8432l2.53599,0c0,0.00639 -1.34146,-0.19164 -2.20382,-3.63471z" opacity="0.9" fill="#4E7AC7" stroke="null"/>
   <path id="svg_11" d="m15.95055,22.12078c-0.49187,1.39895 -1.02845,2.26131 -1.49477,2.79151c0.65795,0.75377 1.1626,0.8432 1.1626,0.8432l2.53599,0c0,0.00639 -1.34146,-0.19164 -2.20382,-3.63471z" fill="#394D92" stroke="null"/>
   <g id="svg_12" stroke="null">
    <path id="svg_17" d="m14.45579,24.91229c-0.65795,0.75377 -1.1626,0.8432 -1.1626,0.8432l2.33158,0c-0.00639,0.00639 -0.51103,-0.08304 -1.16898,-0.8432z" fill="#16193B" stroke="null"/>
   </g>
   <g id="svg_13" stroke="null">
    <path id="svg_16" d="m14.45579,24.91229c-0.65795,0.75377 -1.1626,0.8432 -1.1626,0.8432l2.33158,0c-0.00639,0.00639 -0.51103,-0.08304 -1.16898,-0.8432z" fill="#4E7AC7" stroke="null"/>
   </g>
   <g id="svg_14" stroke="null">
    <path id="svg_15" d="m14.45579,24.91229c-0.65795,0.75377 -1.1626,0.8432 -1.1626,0.8432l2.33158,0c-0.00639,0.00639 -0.51103,-0.08304 -1.16898,-0.8432z" fill="#394D92" stroke="null"/>
   </g>
   <path id="svg_19" d="m25.63459,20.91986c0,0 -0.70906,-3.36003 -1.91637,-3.36003c-0.70267,0 -1.20092,1.14343 -1.49477,2.09523c1.20731,5.72993 3.33448,6.10682 3.33448,6.10682l2.53599,0c0.00639,0 -1.64169,-0.24274 -2.45934,-4.84202l0.00001,0z" fill="#87B7F0" stroke="null"/>
   <path id="svg_20" d="m22.22346,19.65505c-0.2108,0.6835 -0.31301,1.2648 -0.31301,1.2648c-0.81765,4.59928 -2.46572,4.84202 -2.46572,4.84202l6.11321,0c0,0 -2.12717,-0.37689 -3.33448,-6.10682z" fill="#79A9E7" stroke="null"/>
   <g id="svg_21" stroke="null"/>
   <g id="svg_22" stroke="null"/>
   <g id="svg_23" stroke="null"/>
   <g id="svg_24" stroke="null"/>
   <g id="svg_25" stroke="null"/>
   <g id="svg_26" stroke="null"/>
   <g id="svg_27" stroke="null"/>
   <g id="svg_28" stroke="null"/>
   <g id="svg_29" stroke="null"/>
   <g id="svg_30" stroke="null"/>
   <g id="svg_31" stroke="null"/>
   <g id="svg_32" stroke="null"/>
   <g id="svg_33" stroke="null"/>
   <g id="svg_34" stroke="null"/>
   <g id="svg_35" stroke="null"/>
  </g>
  <text font-weight="normal" xml:space="preserve" text-anchor="start" font-family="system-ui" font-size="20" id="svg_37" y="28.33328" x="43.86465" fill="white">NAVIGATOR</text>
 </g>
</svg>