<svg width="150" height="40" xmlns="http://www.w3.org/2000/svg" fill="none">
 <defs>
  <clipPath id="clip0">
   <rect id="svg_1" fill="white" height="32" width="96"/>
  </clipPath>
 </defs>
 <g>
  <title>Layer 1</title>
  <g stroke="null" id="svg_2">
   <path stroke="null" fill="#D0E4F2" d="m0,20c0,-8.7514 7.09694,-15.84835 15.84835,-15.84835s15.84835,7.09694 15.84835,15.84835s-7.09694,15.84835 -15.84835,15.84835s-15.84835,-7.09694 -15.84835,-15.84835z" id="svg_4"/>
   <path stroke="null" fill="#282D4D" d="m11.9709,20.91986c0,0 0.10221,-0.5813 0.31301,-1.2648c-0.05749,-0.26829 -0.10859,-0.54297 -0.1597,-0.83043c0,0 -1.00929,-4.83563 -2.72124,-4.83563c-1.70557,0 -2.56154,4.83563 -2.56154,4.83563c-1.1626,6.52842 -3.49417,6.93725 -3.49417,6.93725l6.15792,0c0.00639,0 1.64807,-0.24274 2.46572,-4.84202z" id="svg_5"/>
   <path stroke="null" fill="#5B84CB" d="m15.95055,22.12078c-0.08943,-0.36411 -0.17886,-0.76016 -0.25552,-1.20092c0,0 -0.70906,-3.36003 -1.91637,-3.36003c-0.70267,0 -1.20092,1.14343 -1.49477,2.09523c0.61963,2.93204 1.4756,4.46513 2.16549,5.25723c0.46632,-0.53019 1.00929,-1.39256 1.50115,-2.79151l0.00002,0z" id="svg_6"/>
   <path stroke="null" fill="#16193B" opacity="0.9" d="m14.45579,24.91229c-0.68989,-0.7921 -1.55226,-2.32519 -2.16549,-5.25723c-0.2108,0.6835 -0.31301,1.2648 -0.31301,1.2648c-0.81765,4.59928 -2.46572,4.84202 -2.46572,4.84202l3.78163,0c-0.00639,0 0.50464,-0.08943 1.1626,-0.84959l-0.00001,0z" id="svg_7"/>
   <path stroke="null" fill="#4A72BB" d="m14.45579,24.91229c-0.68989,-0.7921 -1.55226,-2.32519 -2.16549,-5.25723c-0.2108,0.6835 -0.31301,1.2648 -0.31301,1.2648c-0.81765,4.59928 -2.46572,4.84202 -2.46572,4.84202l3.78163,0c-0.00639,0 0.50464,-0.08943 1.1626,-0.84959l-0.00001,0z" id="svg_8"/>
   <path stroke="null" fill="#445696" d="m21.91045,20.91986c0,0 0.10221,-0.5813 0.31301,-1.2648c-0.05749,-0.26829 -0.10859,-0.54297 -0.1597,-0.83043c0,0 -1.00929,-4.83563 -2.72124,-4.83563c-1.70557,0 -2.56154,4.83563 -2.56154,4.83563c-0.23635,1.34146 -0.53019,2.42101 -0.83681,3.29615c0.86236,3.44307 2.21021,3.6411 2.21021,3.6411l1.29674,0c0,0 1.64169,-0.24274 2.45934,-4.84202l-0.00001,0z" id="svg_9"/>
   <path stroke="null" fill="#4E7AC7" opacity="0.9" d="m15.95055,22.12078c-0.49187,1.39895 -1.02845,2.26131 -1.49477,2.79151c0.65795,0.75377 1.1626,0.8432 1.1626,0.8432l2.53599,0c0,0.00639 -1.34146,-0.19164 -2.20382,-3.63471z" id="svg_10"/>
   <path stroke="null" fill="#394D92" d="m15.95055,22.12078c-0.49187,1.39895 -1.02845,2.26131 -1.49477,2.79151c0.65795,0.75377 1.1626,0.8432 1.1626,0.8432l2.53599,0c0,0.00639 -1.34146,-0.19164 -2.20382,-3.63471z" id="svg_11"/>
   <g stroke="null" id="svg_12">
    <path stroke="null" fill="#16193B" d="m14.45579,24.91229c-0.65795,0.75377 -1.1626,0.8432 -1.1626,0.8432l2.33158,0c-0.00639,0.00639 -0.51103,-0.08304 -1.16898,-0.8432z" id="svg_17"/>
   </g>
   <g stroke="null" id="svg_13">
    <path stroke="null" fill="#4E7AC7" d="m14.45579,24.91229c-0.65795,0.75377 -1.1626,0.8432 -1.1626,0.8432l2.33158,0c-0.00639,0.00639 -0.51103,-0.08304 -1.16898,-0.8432z" id="svg_16"/>
   </g>
   <g stroke="null" id="svg_14">
    <path stroke="null" fill="#394D92" d="m14.45579,24.91229c-0.65795,0.75377 -1.1626,0.8432 -1.1626,0.8432l2.33158,0c-0.00639,0.00639 -0.51103,-0.08304 -1.16898,-0.8432z" id="svg_15"/>
   </g>
   <path stroke="null" fill="#87B7F0" d="m25.63459,20.91986c0,0 -0.70906,-3.36003 -1.91637,-3.36003c-0.70267,0 -1.20092,1.14343 -1.49477,2.09523c1.20731,5.72993 3.33448,6.10682 3.33448,6.10682l2.53599,0c0.00639,0 -1.64169,-0.24274 -2.45934,-4.84202l0.00001,0z" id="svg_19"/>
   <path stroke="null" fill="#79A9E7" d="m22.22346,19.65505c-0.2108,0.6835 -0.31301,1.2648 -0.31301,1.2648c-0.81765,4.59928 -2.46572,4.84202 -2.46572,4.84202l6.11321,0c0,0 -2.12717,-0.37689 -3.33448,-6.10682z" id="svg_20"/>
   <g stroke="null" id="svg_21"/>
   <g stroke="null" id="svg_22"/>
   <g stroke="null" id="svg_23"/>
   <g stroke="null" id="svg_24"/>
   <g stroke="null" id="svg_25"/>
   <g stroke="null" id="svg_26"/>
   <g stroke="null" id="svg_27"/>
   <g stroke="null" id="svg_28"/>
   <g stroke="null" id="svg_29"/>
   <g stroke="null" id="svg_30"/>
   <g stroke="null" id="svg_31"/>
   <g stroke="null" id="svg_32"/>
   <g stroke="null" id="svg_33"/>
   <g stroke="null" id="svg_34"/>
   <g stroke="null" id="svg_35"/>
  </g>
  <text style="cursor: move;" fill="#000000" x="43.86465" y="28.33328" id="svg_37" font-size="20" font-family="system-ui" text-anchor="start" xml:space="preserve" font-weight="normal">NAVIGATOR</text>
 </g>
</svg>